<?xml version="1.0" standalone="no"?>
<!DOCTYPE svg PUBLIC "-//W3C//DTD SVG 20010904//EN"
 "http://www.w3.org/TR/2001/REC-SVG-20010904/DTD/svg10.dtd">
<svg version="1.0" xmlns="http://www.w3.org/2000/svg"
 width="200.000000pt" height="200.000000pt" viewBox="0 0 200.000000 200.000000"
 preserveAspectRatio="xMidYMid meet">

<g transform="translate(0.000000,200.000000) scale(0.100000,-0.100000)"
fill="#000000" stroke="none">
<path d="M1016 1751 c-8 -13 3 -40 32 -79 30 -40 29 -54 -33 -267 -38 -129
-87 -265 -158 -437 -17 -42 1 -47 32 -9 l28 34 35 -21 c42 -26 112 -99 157
-166 l33 -48 -22 -42 c-56 -101 -136 -210 -205 -278 -41 -40 -75 -76 -75 -80
-1 -50 261 156 335 262 15 22 31 40 35 40 4 0 69 -81 144 -180 75 -99 145
-184 156 -190 42 -23 359 1 368 28 2 8 -13 19 -40 30 -88 34 -234 110 -283
147 -66 51 -285 247 -285 256 0 4 16 45 36 91 61 140 94 238 94 274 0 39 -21
64 -81 94 -22 12 -39 23 -37 25 2 2 68 20 148 40 80 20 150 41 157 47 38 31
-2 65 -102 88 -34 8 -44 6 -65 -11 -14 -11 -49 -31 -77 -44 -58 -27 -254 -97
-259 -92 -1 1 14 41 35 87 66 147 113 288 102 307 -33 63 -183 131 -205 94z
m219 -541 c-3 -5 2 -21 11 -35 23 -35 14 -99 -30 -227 -19 -55 -37 -103 -40
-105 -3 -3 -38 25 -78 62 -40 36 -91 78 -115 92 -24 14 -43 27 -43 30 0 3 23
45 52 94 47 79 55 87 78 83 14 -3 45 0 70 5 62 12 102 13 95 1z"/>
<path d="M605 1651 c-6 -5 -72 -25 -148 -45 -126 -32 -142 -34 -166 -21 -41
21 -59 5 -43 -38 16 -45 15 -532 -1 -643 -13 -86 -8 -126 28 -221 18 -47 44
-57 67 -25 20 28 58 46 71 33 13 -13 -113 -203 -207 -313 -91 -107 -91 -127 2
-57 98 74 215 185 287 270 39 46 83 95 99 110 l28 27 -22 22 c-12 12 -45 32
-73 45 l-51 22 -45 -28 c-70 -45 -71 -43 -71 75 0 91 2 105 18 109 9 3 58 15
109 27 129 31 147 60 58 94 -45 18 -47 18 -68 -2 -26 -24 -52 -37 -90 -46
l-28 -7 3 97 3 97 114 33 c63 19 117 37 120 40 3 3 -7 17 -22 30 -32 27 -97
33 -116 11 -12 -15 -89 -53 -94 -46 -2 2 0 44 4 94 4 51 3 97 -2 107 -5 9 -6
19 -2 21 26 14 236 58 243 51 4 -5 12 -209 16 -454 8 -401 11 -449 27 -473 23
-36 74 -38 82 -4 3 12 6 206 7 432 3 379 4 413 22 448 25 51 12 79 -53 112
-52 26 -90 32 -106 16z"/>
<path d="M530 566 c0 -21 107 -141 162 -183 72 -54 77 -57 93 -43 30 25 11
126 -29 159 -26 22 -226 81 -226 67z"/>
</g>
</svg>
