<?xml version="1.0" standalone="no"?>
<!DOCTYPE svg PUBLIC "-//W3C//DTD SVG 20010904//EN"
 "http://www.w3.org/TR/2001/REC-SVG-20010904/DTD/svg10.dtd">
<svg version="1.0" xmlns="http://www.w3.org/2000/svg"
 width="200.000000pt" height="200.000000pt" viewBox="0 0 200.000000 200.000000"
 preserveAspectRatio="xMidYMid meet">

<g transform="translate(0.000000,200.000000) scale(0.100000,-0.100000)"
fill="#000000" stroke="none">
<path d="M1050 1825 c0 -9 10 -35 21 -58 21 -39 22 -51 15 -190 -3 -81 -10
-156 -15 -165 -6 -11 -48 -27 -120 -46 -61 -16 -111 -32 -111 -37 0 -4 16 -13
37 -18 28 -8 51 -6 105 9 78 21 76 24 50 -70 l-19 -65 -69 -17 c-38 -9 -95
-21 -127 -28 -63 -13 -68 -25 -21 -52 28 -16 32 -15 104 7 41 13 76 22 79 19
17 -17 -156 -299 -223 -363 l-36 -35 0 417 c0 292 3 424 11 441 15 31 4 46
-52 74 l-41 20 -46 -24 c-26 -13 -99 -37 -163 -53 -92 -24 -123 -28 -155 -21
-51 12 -65 -2 -35 -34 35 -37 41 -83 41 -314 0 -375 -36 -571 -151 -820 -40
-87 -45 -102 -31 -102 10 0 124 173 155 235 35 70 82 209 96 280 19 94 18 92
74 106 29 6 83 23 121 36 38 12 71 23 74 23 2 0 2 -101 0 -225 -2 -186 -6
-227 -18 -235 -17 -10 -84 -3 -147 15 -24 7 -43 10 -43 5 0 -4 25 -29 56 -55
30 -26 80 -79 111 -116 30 -38 62 -69 70 -69 8 0 26 26 41 58 23 50 27 73 32
193 l5 137 55 43 c73 57 159 147 217 225 46 63 47 63 62 41 20 -27 19 -133 -1
-192 -13 -39 -15 -40 -78 -52 -36 -7 -84 -12 -107 -13 -51 0 -55 -13 -10 -41
27 -17 42 -19 95 -14 l63 6 -37 -73 c-58 -116 -139 -232 -230 -328 -47 -48
-80 -91 -75 -94 11 -7 152 95 224 163 70 64 155 181 210 288 l47 90 64 17 c36
9 77 16 91 16 22 0 25 -4 25 -33 0 -49 -34 -172 -77 -282 -44 -111 -50 -115
-143 -91 -35 9 -65 14 -68 11 -3 -3 25 -33 62 -67 37 -34 81 -85 98 -115 16
-29 34 -53 39 -53 17 0 52 47 79 105 62 138 167 499 151 519 -6 7 -35 29 -66
51 l-56 38 -90 -31 -89 -31 6 27 c4 15 13 42 20 61 8 18 14 41 14 51 0 24 -54
68 -112 93 -27 11 -48 22 -48 26 0 3 13 28 28 56 22 40 33 51 62 57 31 6 38 4
60 -21 14 -16 99 -115 189 -220 l164 -191 66 0 c36 0 107 7 156 15 151 26 158
33 59 60 -135 36 -321 143 -539 309 l-80 61 50 7 c28 3 121 10 208 14 126 6
160 10 164 22 8 20 -29 47 -107 75 l-65 25 -40 -28 c-29 -20 -75 -35 -168 -54
-71 -15 -131 -26 -133 -24 -2 2 7 37 20 78 17 52 30 76 44 81 36 13 134 28
221 33 91 5 104 12 99 47 -2 18 -13 25 -53 36 -65 16 -105 16 -129 -2 -23 -17
-126 -49 -134 -41 -8 9 19 205 35 255 14 41 14 44 -9 68 -48 53 -178 95 -178
58z m-432 -388 l-3 -121 -88 -27 c-48 -15 -98 -30 -112 -33 l-25 -6 0 108 c0
81 -4 113 -16 130 -8 12 -14 22 -12 23 2 0 55 15 118 33 77 21 119 29 128 23
9 -7 12 -41 10 -130z m2 -291 l0 -104 -67 -20 c-105 -32 -163 -45 -170 -39 -3
3 -2 53 2 110 l7 104 106 25 c59 14 110 26 115 27 4 0 7 -46 7 -103z"/>
<path d="M1407 1824 c-3 -4 -4 -25 -1 -48 6 -42 4 -46 -119 -238 -18 -27 1
-34 31 -12 15 11 75 53 135 93 l107 73 -22 40 c-32 57 -111 112 -131 92z"/>
<path d="M786 1681 c-3 -5 20 -46 52 -92 59 -86 111 -126 146 -113 24 9 31 53
15 97 -13 36 -20 41 -109 78 -110 45 -97 41 -104 30z"/>
</g>
</svg>
