<?xml version="1.0" standalone="no"?>
<!DOCTYPE svg PUBLIC "-//W3C//DTD SVG 20010904//EN"
 "http://www.w3.org/TR/2001/REC-SVG-20010904/DTD/svg10.dtd">
<svg version="1.0" xmlns="http://www.w3.org/2000/svg"
 width="200.000000pt" height="200.000000pt" viewBox="0 0 200.000000 200.000000"
 preserveAspectRatio="xMidYMid meet">

<g transform="translate(0.000000,200.000000) scale(0.100000,-0.100000)"
fill="#000000" stroke="none">
<path d="M1480 1815 c-24 -13 -958 -145 -1030 -145 -21 0 -49 12 -82 36 -27
20 -51 34 -53 32 -3 -2 -7 -184 -9 -404 -5 -473 -26 -775 -62 -876 -12 -34
-11 -46 6 -102 32 -103 82 -162 118 -140 39 25 41 55 41 730 l1 651 68 6 c37
3 173 21 302 41 129 19 332 46 450 60 187 23 216 24 229 11 12 -11 16 -73 22
-312 15 -585 15 -956 0 -982 -13 -24 -14 -24 -137 -18 -68 2 -124 2 -124 -2 1
-3 31 -24 67 -46 37 -22 107 -80 156 -128 51 -49 96 -86 103 -83 20 8 61 95
87 185 21 71 22 89 14 168 -5 48 -10 320 -11 603 -1 476 0 519 17 568 14 40
16 56 7 67 -10 12 -143 95 -152 95 -2 0 -14 -7 -28 -15z"/>
<path d="M1122 1475 c-17 -14 -43 -30 -59 -35 -49 -17 -405 -87 -475 -95 -80
-8 -86 -21 -25 -54 l42 -23 80 21 c148 37 300 62 463 74 180 14 209 25 175 65
-14 15 -145 72 -168 72 -2 0 -17 -11 -33 -25z"/>
<path d="M1094 1120 c-38 -24 -262 -78 -359 -86 -51 -4 -82 -1 -114 10 -24 9
-47 13 -52 10 -15 -9 -10 -30 10 -48 11 -10 27 -54 41 -114 12 -53 29 -121 37
-151 31 -115 102 -173 121 -98 8 30 12 33 73 45 35 7 118 14 183 16 99 3 122
6 132 21 7 9 31 69 55 133 23 65 50 124 61 134 28 25 22 42 -24 75 -37 26
-121 73 -130 73 -2 0 -17 -9 -34 -20z m14 -93 c8 -9 6 -46 -5 -125 -14 -99
-19 -113 -37 -117 -46 -9 -262 -40 -279 -40 -15 0 -26 22 -53 110 -18 61 -33
111 -34 111 0 1 35 7 78 13 42 7 127 23 187 36 135 28 130 28 143 12z"/>
</g>
</svg>
