<?xml version="1.0" standalone="no"?>
<!DOCTYPE svg PUBLIC "-//W3C//DTD SVG 20010904//EN"
 "http://www.w3.org/TR/2001/REC-SVG-20010904/DTD/svg10.dtd">
<svg version="1.0" xmlns="http://www.w3.org/2000/svg"
 width="191.000000pt" height="297.000000pt" viewBox="0 0 191.000000 297.000000"
 preserveAspectRatio="xMidYMid meet">

<g transform="translate(0.000000,297.000000) scale(0.100000,-0.100000)"
fill="#000000" stroke="none">
<path d="M253 2700 c-18 -27 -33 -54 -33 -60 0 -5 16 -10 35 -10 24 0 35 -5
35 -15 0 -8 5 -15 10 -15 6 0 10 6 10 14 0 8 6 17 13 20 10 5 10 7 0 12 -8 3
-13 25 -13 55 0 63 -15 63 -57 -1z m37 -20 c0 -23 -4 -30 -20 -30 -24 0 -25 8
-4 38 20 29 24 28 24 -8z"/>
<path d="M375 2182 c3 -8 5 -15 5 -18 0 -8 60 -34 79 -34 30 0 40 -28 40 -116
0 -90 15 -144 33 -126 6 6 16 62 23 124 l11 113 57 -1 c57 -1 57 -1 44 20 -23
35 -57 44 -180 48 -95 2 -116 1 -112 -10z"/>
<path d="M1235 2182 c3 -8 5 -15 5 -18 0 -8 60 -34 79 -34 30 0 40 -28 40
-116 0 -90 15 -144 33 -126 6 6 16 62 23 124 l11 113 57 -1 c57 -1 57 -1 44
20 -23 35 -57 44 -180 48 -95 2 -116 1 -112 -10z"/>
<path d="M510 1075 c-6 -16 -11 -65 -11 -109 0 -110 -7 -120 -75 -113 -49 5
-53 4 -45 -12 22 -40 42 -46 170 -52 69 -3 127 -4 129 -3 2 1 -1 11 -7 22 -10
19 -47 38 -86 44 -18 3 -21 16 -31 116 -11 121 -26 155 -44 107z"/>
<path d="M1370 1075 c-6 -16 -11 -65 -11 -109 0 -110 -7 -120 -75 -113 -49 5
-53 4 -45 -12 22 -40 42 -46 170 -52 69 -3 127 -4 129 -3 2 1 -1 11 -7 22 -10
19 -47 38 -86 44 -18 3 -21 16 -31 116 -11 121 -26 155 -44 107z"/>
<path d="M1600 366 c0 -8 -6 -17 -12 -20 -10 -5 -10 -7 0 -12 7 -3 12 -25 12
-55 0 -33 4 -49 13 -49 12 0 77 92 77 110 0 5 -16 10 -35 10 -24 0 -35 5 -35
15 0 8 -4 15 -10 15 -5 0 -10 -6 -10 -14z m60 -45 c0 -5 -9 -19 -20 -32 l-19
-24 -1 33 c0 25 4 32 20 32 11 0 20 -4 20 -9z"/>
</g>
</svg>
