<?xml version="1.0" standalone="no"?>
<!DOCTYPE svg PUBLIC "-//W3C//DTD SVG 20010904//EN"
 "http://www.w3.org/TR/2001/REC-SVG-20010904/DTD/svg10.dtd">
<svg version="1.0" xmlns="http://www.w3.org/2000/svg"
 width="190.000000pt" height="297.000000pt" viewBox="0 0 190.000000 297.000000"
 preserveAspectRatio="xMidYMid meet">

<g transform="translate(0.000000,297.000000) scale(0.100000,-0.100000)"
fill="#000000" stroke="none">
<path d="M220 2740 c0 -5 16 -10 35 -10 l35 0 -21 -52 c-12 -29 -23 -59 -26
-65 -3 -7 -1 -13 5 -13 8 0 38 61 69 138 4 9 -9 12 -46 12 -28 0 -51 -4 -51
-10z"/>
<path d="M360 2341 c0 -24 48 -64 86 -70 l39 -6 5 -108 c6 -109 18 -143 42
-119 7 7 14 56 18 120 l5 107 58 0 c44 0 56 3 52 13 -3 8 -5 15 -5 18 0 2 -13
10 -30 19 -20 10 -59 15 -130 15 -56 0 -110 5 -121 10 -12 7 -19 7 -19 1z"/>
<path d="M1220 2341 c0 -24 48 -64 86 -70 l39 -6 5 -108 c6 -109 18 -143 42
-119 7 7 14 56 18 120 l5 107 58 0 c44 0 56 3 52 13 -3 8 -5 15 -5 18 0 2 -13
10 -30 19 -20 10 -59 15 -130 15 -56 0 -110 5 -121 10 -12 7 -19 7 -19 1z"/>
<path d="M790 2001 c0 -24 48 -64 86 -70 l39 -6 5 -108 c6 -109 18 -143 42
-119 7 7 14 56 18 120 l5 107 58 0 c44 0 56 3 52 13 -3 8 -5 15 -5 18 0 2 -13
10 -30 19 -20 10 -59 15 -130 15 -56 0 -110 5 -121 10 -12 7 -19 7 -19 1z"/>
<path d="M360 1651 c0 -24 48 -64 86 -70 l39 -6 5 -108 c6 -109 18 -143 42
-119 7 7 14 56 18 120 l5 107 58 0 c44 0 56 3 52 13 -3 8 -5 15 -5 18 0 2 -13
10 -30 19 -20 10 -59 15 -130 15 -56 0 -110 5 -121 10 -12 7 -19 7 -19 1z"/>
<path d="M1220 1651 c0 -24 48 -64 86 -70 l39 -6 5 -108 c6 -109 18 -143 42
-119 7 7 14 56 18 120 l5 107 58 0 c44 0 56 3 52 13 -3 8 -5 15 -5 18 0 2 -13
10 -30 19 -20 10 -59 15 -130 15 -56 0 -110 5 -121 10 -12 7 -19 7 -19 1z"/>
<path d="M503 938 c-4 -7 -10 -60 -13 -118 l-5 -105 -58 0 c-44 0 -56 -3 -52
-13 3 -8 5 -15 5 -18 0 -2 13 -10 30 -19 20 -10 59 -15 130 -15 56 0 110 -5
121 -10 26 -15 25 2 -4 36 -15 17 -38 29 -63 33 l-39 6 -5 105 c-6 102 -12
130 -30 130 -5 0 -12 -6 -17 -12z"/>
<path d="M1363 938 c-4 -7 -10 -60 -13 -118 l-5 -105 -58 0 c-44 0 -56 -3 -52
-13 3 -8 5 -15 5 -18 0 -2 13 -10 30 -19 20 -10 59 -15 130 -15 56 0 110 -5
121 -10 26 -15 25 2 -4 36 -15 17 -38 29 -63 33 l-39 6 -5 105 c-6 102 -12
130 -30 130 -5 0 -12 -6 -17 -12z"/>
<path d="M1615 318 c-15 -35 -29 -69 -32 -75 -4 -10 9 -13 46 -13 28 0 51 5
51 10 0 6 -16 10 -35 10 l-35 0 21 53 c12 28 23 58 26 65 3 6 1 12 -5 12 -5 0
-22 -28 -37 -62z"/>
</g>
</svg>
