<?xml version="1.0" standalone="no"?>
<!DOCTYPE svg PUBLIC "-//W3C//DTD SVG 20010904//EN"
 "http://www.w3.org/TR/2001/REC-SVG-20010904/DTD/svg10.dtd">
<svg version="1.0" xmlns="http://www.w3.org/2000/svg"
 width="191.000000pt" height="297.000000pt" viewBox="0 0 191.000000 297.000000"
 preserveAspectRatio="xMidYMid meet">

<g transform="translate(0.000000,297.000000) scale(0.100000,-0.100000)"
fill="#000000" stroke="none">
<path d="M240 2733 c0 -10 -3 -28 -6 -41 -6 -20 -4 -22 17 -17 31 7 52 -7 47
-31 -2 -13 -13 -20 -36 -22 -38 -4 -33 -22 7 -22 32 0 51 16 51 45 0 26 -18
45 -42 45 -11 0 -18 7 -18 20 0 16 7 20 30 20 17 0 30 5 30 10 0 6 -18 10 -40
10 -31 0 -40 -4 -40 -17z"/>
<path d="M375 2182 c3 -8 5 -15 5 -18 0 -8 60 -34 79 -34 30 0 40 -28 40 -116
0 -90 15 -144 33 -126 6 6 16 62 23 124 l11 113 57 -1 c57 -1 57 -1 44 20 -23
35 -57 44 -180 48 -95 2 -116 1 -112 -10z"/>
<path d="M1235 2182 c3 -8 5 -15 5 -18 0 -8 60 -34 79 -34 30 0 40 -28 40
-116 0 -90 15 -144 33 -126 6 6 16 62 23 124 l11 113 57 -1 c57 -1 57 -1 44
20 -23 35 -57 44 -180 48 -95 2 -116 1 -112 -10z"/>
<path d="M795 1632 c3 -8 5 -15 5 -18 0 -8 60 -34 79 -34 30 0 40 -28 40 -116
0 -90 15 -144 33 -126 6 6 16 62 23 124 l11 113 57 -1 c57 -1 57 -1 44 20 -23
35 -57 44 -180 48 -95 2 -116 1 -112 -10z"/>
<path d="M510 1075 c-6 -16 -11 -65 -11 -109 0 -110 -7 -120 -75 -113 -49 5
-53 4 -45 -12 22 -40 42 -46 170 -52 69 -3 127 -4 129 -3 2 1 -1 11 -7 22 -10
19 -47 38 -86 44 -18 3 -21 16 -31 116 -11 121 -26 155 -44 107z"/>
<path d="M1370 1075 c-6 -16 -11 -65 -11 -109 0 -110 -7 -120 -75 -113 -49 5
-53 4 -45 -12 22 -40 42 -46 170 -52 69 -3 127 -4 129 -3 2 1 -1 11 -7 22 -10
19 -47 38 -86 44 -18 3 -21 16 -31 116 -11 121 -26 155 -44 107z"/>
<path d="M1602 368 c-27 -27 -7 -78 30 -78 11 0 18 -7 18 -20 0 -16 -7 -20
-30 -20 -16 0 -30 -4 -30 -10 0 -5 18 -10 40 -10 31 0 40 4 40 18 0 9 3 27 6
40 6 20 4 22 -17 17 -31 -7 -52 7 -47 31 2 13 13 20 36 22 18 2 30 8 27 13 -9
13 -59 11 -73 -3z"/>
</g>
</svg>
