<?xml version="1.0" standalone="no"?>
<!DOCTYPE svg PUBLIC "-//W3C//DTD SVG 20010904//EN"
 "http://www.w3.org/TR/2001/REC-SVG-20010904/DTD/svg10.dtd">
<svg version="1.0" xmlns="http://www.w3.org/2000/svg"
 width="190.000000pt" height="297.000000pt" viewBox="0 0 190.000000 297.000000"
 preserveAspectRatio="xMidYMid meet">

<g transform="translate(0.000000,297.000000) scale(0.100000,-0.100000)"
fill="#000000" stroke="none">
<path d="M231 2732 c-7 -14 -6 -25 4 -39 13 -18 13 -22 0 -27 -19 -7 -19 -40
-1 -55 20 -17 67 -10 80 11 8 13 8 23 -2 38 -9 15 -10 26 -2 41 9 15 8 24 -1
35 -17 20 -66 18 -78 -4z m63 -11 c3 -5 -1 -14 -9 -21 -12 -10 -18 -10 -30 0
-18 15 -11 30 15 30 10 0 21 -4 24 -9z m-4 -66 c15 -18 5 -35 -20 -35 -10 0
-22 5 -25 10 -7 11 12 40 25 40 4 0 13 -7 20 -15z"/>
<path d="M360 2341 c0 -24 48 -64 86 -70 l39 -6 5 -108 c6 -109 18 -143 42
-119 7 7 14 56 18 120 l5 107 58 0 c44 0 56 3 52 13 -3 8 -5 15 -5 18 0 2 -13
10 -30 19 -20 10 -59 15 -130 15 -56 0 -110 5 -121 10 -12 7 -19 7 -19 1z"/>
<path d="M1220 2341 c0 -24 48 -64 86 -70 l39 -6 5 -108 c6 -109 18 -143 42
-119 7 7 14 56 18 120 l5 107 58 0 c44 0 56 3 52 13 -3 8 -5 15 -5 18 0 2 -13
10 -30 19 -20 10 -59 15 -130 15 -56 0 -110 5 -121 10 -12 7 -19 7 -19 1z"/>
<path d="M790 2001 c0 -24 48 -64 86 -70 l39 -6 5 -108 c6 -109 18 -143 42
-119 7 7 14 56 18 120 l5 107 58 0 c44 0 56 3 52 13 -3 8 -5 15 -5 18 0 2 -13
10 -30 19 -20 10 -59 15 -130 15 -56 0 -110 5 -121 10 -12 7 -19 7 -19 1z"/>
<path d="M360 1651 c0 -24 48 -64 86 -70 l39 -6 5 -108 c6 -109 18 -143 42
-119 7 7 14 56 18 120 l5 107 58 0 c44 0 56 3 52 13 -3 8 -5 15 -5 18 0 2 -13
10 -30 19 -20 10 -59 15 -130 15 -56 0 -110 5 -121 10 -12 7 -19 7 -19 1z"/>
<path d="M1220 1651 c0 -24 48 -64 86 -70 l39 -6 5 -108 c6 -109 18 -143 42
-119 7 7 14 56 18 120 l5 107 58 0 c44 0 56 3 52 13 -3 8 -5 15 -5 18 0 2 -13
10 -30 19 -20 10 -59 15 -130 15 -56 0 -110 5 -121 10 -12 7 -19 7 -19 1z"/>
<path d="M933 1298 c-4 -7 -10 -60 -13 -118 l-5 -105 -58 0 c-44 0 -56 -3 -52
-13 3 -8 5 -15 5 -18 0 -2 13 -10 30 -19 20 -10 59 -15 130 -15 56 0 110 -5
121 -10 26 -15 25 2 -4 36 -15 17 -38 29 -63 33 l-39 6 -5 105 c-6 102 -12
130 -30 130 -5 0 -12 -6 -17 -12z"/>
<path d="M503 938 c-4 -7 -10 -60 -13 -118 l-5 -105 -58 0 c-44 0 -56 -3 -52
-13 3 -8 5 -15 5 -18 0 -2 13 -10 30 -19 20 -10 59 -15 130 -15 56 0 110 -5
121 -10 26 -15 25 2 -4 36 -15 17 -38 29 -63 33 l-39 6 -5 105 c-6 102 -12
130 -30 130 -5 0 -12 -6 -17 -12z"/>
<path d="M1363 938 c-4 -7 -10 -60 -13 -118 l-5 -105 -58 0 c-44 0 -56 -3 -52
-13 3 -8 5 -15 5 -18 0 -2 13 -10 30 -19 20 -10 59 -15 130 -15 56 0 110 -5
121 -10 26 -15 25 2 -4 36 -15 17 -38 29 -63 33 l-39 6 -5 105 c-6 102 -12
130 -30 130 -5 0 -12 -6 -17 -12z"/>
<path d="M1592 368 c-15 -15 -15 -41 -1 -55 8 -8 8 -17 -1 -33 -15 -28 2 -50
41 -50 37 0 54 29 34 57 -13 18 -13 22 0 27 18 7 20 37 3 54 -7 7 -24 12 -38
12 -14 0 -31 -5 -38 -12z m64 -19 c3 -6 -1 -18 -10 -27 -15 -15 -17 -15 -32 0
-19 19 -11 38 16 38 10 0 22 -5 26 -11z m-6 -74 c10 -12 9 -16 -4 -21 -9 -3
-23 -3 -32 0 -13 5 -14 9 -4 21 16 19 24 19 40 0z"/>
</g>
</svg>
