<?xml version="1.0" standalone="no"?>
<!DOCTYPE svg PUBLIC "-//W3C//DTD SVG 20010904//EN"
 "http://www.w3.org/TR/2001/REC-SVG-20010904/DTD/svg10.dtd">
<svg version="1.0" xmlns="http://www.w3.org/2000/svg"
 width="190.000000pt" height="297.000000pt" viewBox="0 0 190.000000 297.000000"
 preserveAspectRatio="xMidYMid meet">

<g transform="translate(0.000000,297.000000) scale(0.100000,-0.100000)"
fill="#000000" stroke="none">
<path d="M230 2731 c-15 -29 -12 -46 9 -65 13 -12 27 -15 41 -11 20 6 21 5 11
-14 -7 -13 -22 -21 -36 -21 -14 0 -25 -4 -25 -10 0 -15 43 -12 66 4 24 18 28
111 4 126 -25 16 -59 11 -70 -9z m66 -16 c7 -18 -13 -45 -33 -45 -17 0 -27 24
-19 45 7 20 45 19 52 0z"/>
<path d="M360 2341 c0 -24 48 -64 86 -70 l39 -6 5 -108 c6 -109 18 -143 42
-119 7 7 14 56 18 120 l5 107 58 0 c44 0 56 3 52 13 -3 8 -5 15 -5 18 0 2 -13
10 -30 19 -20 10 -59 15 -130 15 -56 0 -110 5 -121 10 -12 7 -19 7 -19 1z"/>
<path d="M1220 2341 c0 -24 48 -64 86 -70 l39 -6 5 -108 c6 -109 18 -143 42
-119 7 7 14 56 18 120 l5 107 58 0 c44 0 56 3 52 13 -3 8 -5 15 -5 18 0 2 -13
10 -30 19 -20 10 -59 15 -130 15 -56 0 -110 5 -121 10 -12 7 -19 7 -19 1z"/>
<path d="M360 1871 c0 -24 48 -64 86 -70 l39 -6 5 -108 c6 -109 18 -143 42
-119 7 7 14 56 18 120 l5 107 58 0 c44 0 56 3 52 13 -3 8 -5 15 -5 18 0 2 -13
10 -30 19 -20 10 -59 15 -130 15 -56 0 -110 5 -121 10 -12 7 -19 7 -19 1z"/>
<path d="M1220 1871 c0 -24 48 -64 86 -70 l39 -6 5 -108 c6 -109 18 -143 42
-119 7 7 14 56 18 120 l5 107 58 0 c44 0 56 3 52 13 -3 8 -5 15 -5 18 0 2 -13
10 -30 19 -20 10 -59 15 -130 15 -56 0 -110 5 -121 10 -12 7 -19 7 -19 1z"/>
<path d="M790 1641 c0 -24 48 -64 86 -70 l39 -6 5 -108 c6 -109 18 -143 42
-119 7 7 14 56 18 120 l5 107 58 0 c44 0 56 3 52 13 -3 8 -5 15 -5 18 0 2 -13
10 -30 19 -20 10 -59 15 -130 15 -56 0 -110 5 -121 10 -12 7 -19 7 -19 1z"/>
<path d="M503 1408 c-4 -7 -10 -60 -13 -118 l-5 -105 -58 0 c-44 0 -56 -3 -52
-13 3 -8 5 -15 5 -18 0 -2 13 -10 30 -19 20 -10 59 -15 130 -15 56 0 110 -5
121 -10 26 -15 25 2 -4 36 -15 17 -38 29 -63 33 l-39 6 -5 105 c-6 102 -12
130 -30 130 -5 0 -12 -6 -17 -12z"/>
<path d="M1363 1408 c-4 -7 -10 -60 -13 -118 l-5 -105 -58 0 c-44 0 -56 -3
-52 -13 3 -8 5 -15 5 -18 0 -2 13 -10 30 -19 20 -10 59 -15 130 -15 56 0 110
-5 121 -10 26 -15 25 2 -4 36 -15 17 -38 29 -63 33 l-39 6 -5 105 c-6 102 -12
130 -30 130 -5 0 -12 -6 -17 -12z"/>
<path d="M503 938 c-4 -7 -10 -60 -13 -118 l-5 -105 -58 0 c-44 0 -56 -3 -52
-13 3 -8 5 -15 5 -18 0 -2 13 -10 30 -19 20 -10 59 -15 130 -15 56 0 110 -5
121 -10 26 -15 25 2 -4 36 -15 17 -38 29 -63 33 l-39 6 -5 105 c-6 102 -12
130 -30 130 -5 0 -12 -6 -17 -12z"/>
<path d="M1363 938 c-4 -7 -10 -60 -13 -118 l-5 -105 -58 0 c-44 0 -56 -3 -52
-13 3 -8 5 -15 5 -18 0 -2 13 -10 30 -19 20 -10 59 -15 130 -15 56 0 110 -5
121 -10 26 -15 25 2 -4 36 -15 17 -38 29 -63 33 l-39 6 -5 105 c-6 102 -12
130 -30 130 -5 0 -12 -6 -17 -12z"/>
<path d="M1604 366 c-24 -18 -28 -111 -4 -126 49 -32 103 27 65 70 -13 15 -26
19 -43 15 -21 -5 -22 -4 -12 15 6 12 21 20 35 20 14 0 25 5 25 10 0 15 -43 12
-66 -4z m51 -86 c0 -18 -6 -26 -23 -28 -27 -4 -40 22 -22 44 19 22 45 13 45
-16z"/>
</g>
</svg>
