<?xml version="1.0" standalone="no"?>
<!DOCTYPE svg PUBLIC "-//W3C//DTD SVG 20010904//EN"
 "http://www.w3.org/TR/2001/REC-SVG-20010904/DTD/svg10.dtd">
<svg version="1.0" xmlns="http://www.w3.org/2000/svg"
 width="190.000000pt" height="297.000000pt" viewBox="0 0 190.000000 297.000000"
 preserveAspectRatio="xMidYMid meet">

<g transform="translate(0.000000,297.000000) scale(0.100000,-0.100000)"
fill="#000000" stroke="none">
<path d="M247 2737 c-10 -6 -20 -29 -24 -49 -10 -67 41 -113 81 -72 34 34 5
91 -41 79 -22 -5 -23 -4 -13 15 6 12 21 20 35 20 14 0 25 5 25 10 0 14 -43 12
-63 -3z m48 -87 c0 -18 -6 -26 -21 -28 -26 -4 -40 24 -23 45 18 21 44 11 44
-17z"/>
<path d="M360 2341 c0 -24 48 -64 86 -70 l39 -6 5 -108 c6 -109 18 -143 42
-119 7 7 14 56 18 120 l5 107 58 0 c44 0 56 3 52 13 -3 8 -5 15 -5 18 0 2 -13
10 -30 19 -20 10 -59 15 -130 15 -56 0 -110 5 -121 10 -12 7 -19 7 -19 1z"/>
<path d="M1220 2341 c0 -24 48 -64 86 -70 l39 -6 5 -108 c6 -109 18 -143 42
-119 7 7 14 56 18 120 l5 107 58 0 c44 0 56 3 52 13 -3 8 -5 15 -5 18 0 2 -13
10 -30 19 -20 10 -59 15 -130 15 -56 0 -110 5 -121 10 -12 7 -19 7 -19 1z"/>
<path d="M360 1651 c0 -24 48 -64 86 -70 l39 -6 5 -108 c6 -109 18 -143 42
-119 7 7 14 56 18 120 l5 107 58 0 c44 0 56 3 52 13 -3 8 -5 15 -5 18 0 2 -13
10 -30 19 -20 10 -59 15 -130 15 -56 0 -110 5 -121 10 -12 7 -19 7 -19 1z"/>
<path d="M1220 1651 c0 -24 48 -64 86 -70 l39 -6 5 -108 c6 -109 18 -143 42
-119 7 7 14 56 18 120 l5 107 58 0 c44 0 56 3 52 13 -3 8 -5 15 -5 18 0 2 -13
10 -30 19 -20 10 -59 15 -130 15 -56 0 -110 5 -121 10 -12 7 -19 7 -19 1z"/>
<path d="M503 938 c-4 -7 -10 -60 -13 -118 l-5 -105 -58 0 c-44 0 -56 -3 -52
-13 3 -8 5 -15 5 -18 0 -2 13 -10 30 -19 20 -10 59 -15 130 -15 56 0 110 -5
121 -10 26 -15 25 2 -4 36 -15 17 -38 29 -63 33 l-39 6 -5 105 c-6 102 -12
130 -30 130 -5 0 -12 -6 -17 -12z"/>
<path d="M1363 938 c-4 -7 -10 -60 -13 -118 l-5 -105 -58 0 c-44 0 -56 -3 -52
-13 3 -8 5 -15 5 -18 0 -2 13 -10 30 -19 20 -10 59 -15 130 -15 56 0 110 -5
121 -10 26 -15 25 2 -4 36 -15 17 -38 29 -63 33 l-39 6 -5 105 c-6 102 -12
130 -30 130 -5 0 -12 -6 -17 -12z"/>
<path d="M1596 364 c-34 -34 -5 -91 41 -79 22 5 23 4 13 -15 -6 -12 -21 -20
-35 -20 -14 0 -25 -4 -25 -10 0 -14 43 -12 63 3 10 6 20 29 24 49 10 67 -41
113 -81 72z m58 -20 c7 -19 -10 -44 -31 -44 -17 0 -27 24 -19 45 7 20 42 19
50 -1z"/>
</g>
</svg>
