<?xml version="1.0" standalone="no"?>
<!DOCTYPE svg PUBLIC "-//W3C//DTD SVG 20010904//EN"
 "http://www.w3.org/TR/2001/REC-SVG-20010904/DTD/svg10.dtd">
<svg version="1.0" xmlns="http://www.w3.org/2000/svg"
 width="190.000000pt" height="297.000000pt" viewBox="0 0 190.000000 297.000000"
 preserveAspectRatio="xMidYMid meet">

<g transform="translate(0.000000,297.000000) scale(0.100000,-0.100000)"
fill="#000000" stroke="none">
<path d="M202 2738 c-15 -15 -16 -32 -2 -23 6 4 10 -17 10 -54 0 -34 4 -61 10
-61 6 0 10 32 10 75 0 75 -5 86 -28 63z"/>
<path d="M291 2736 c-19 -22 -23 -78 -9 -106 16 -30 50 -37 72 -15 18 19 22
86 6 116 -12 22 -52 25 -69 5z m54 -61 c0 -43 -3 -50 -20 -50 -27 0 -42 46
-27 80 8 17 19 25 30 23 13 -3 17 -14 17 -53z"/>
<path d="M360 2341 c0 -24 48 -64 86 -70 l39 -6 5 -108 c6 -109 18 -143 42
-119 7 7 14 56 18 120 l5 107 58 0 c44 0 56 3 52 13 -3 8 -5 15 -5 18 0 2 -13
10 -30 19 -20 10 -59 15 -130 15 -56 0 -110 5 -121 10 -12 7 -19 7 -19 1z"/>
<path d="M1220 2341 c0 -24 48 -64 86 -70 l39 -6 5 -108 c6 -109 18 -143 42
-119 7 7 14 56 18 120 l5 107 58 0 c44 0 56 3 52 13 -3 8 -5 15 -5 18 0 2 -13
10 -30 19 -20 10 -59 15 -130 15 -56 0 -110 5 -121 10 -12 7 -19 7 -19 1z"/>
<path d="M790 2101 c0 -24 48 -64 86 -70 l39 -6 5 -108 c6 -109 18 -143 42
-119 7 7 14 56 18 120 l5 107 58 0 c44 0 56 3 52 13 -3 8 -5 15 -5 18 0 2 -13
10 -30 19 -20 10 -59 15 -130 15 -56 0 -110 5 -121 10 -12 7 -19 7 -19 1z"/>
<path d="M360 1871 c0 -24 48 -64 86 -70 l39 -6 5 -108 c6 -109 18 -143 42
-119 7 7 14 56 18 120 l5 107 58 0 c44 0 56 3 52 13 -3 8 -5 15 -5 18 0 2 -13
10 -30 19 -20 10 -59 15 -130 15 -56 0 -110 5 -121 10 -12 7 -19 7 -19 1z"/>
<path d="M1220 1871 c0 -24 48 -64 86 -70 l39 -6 5 -108 c6 -109 18 -143 42
-119 7 7 14 56 18 120 l5 107 58 0 c44 0 56 3 52 13 -3 8 -5 15 -5 18 0 2 -13
10 -30 19 -20 10 -59 15 -130 15 -56 0 -110 5 -121 10 -12 7 -19 7 -19 1z"/>
<path d="M503 1408 c-4 -7 -10 -60 -13 -118 l-5 -105 -58 0 c-44 0 -56 -3 -52
-13 3 -8 5 -15 5 -18 0 -2 13 -10 30 -19 20 -10 59 -15 130 -15 56 0 110 -5
121 -10 26 -15 25 2 -4 36 -15 17 -38 29 -63 33 l-39 6 -5 105 c-6 102 -12
130 -30 130 -5 0 -12 -6 -17 -12z"/>
<path d="M1363 1408 c-4 -7 -10 -60 -13 -118 l-5 -105 -58 0 c-44 0 -56 -3
-52 -13 3 -8 5 -15 5 -18 0 -2 13 -10 30 -19 20 -10 59 -15 130 -15 56 0 110
-5 121 -10 26 -15 25 2 -4 36 -15 17 -38 29 -63 33 l-39 6 -5 105 c-6 102 -12
130 -30 130 -5 0 -12 -6 -17 -12z"/>
<path d="M933 1178 c-4 -7 -10 -60 -13 -118 l-5 -105 -58 0 c-44 0 -56 -3 -52
-13 3 -8 5 -15 5 -18 0 -2 13 -10 30 -19 20 -10 59 -15 130 -15 56 0 110 -5
121 -10 26 -15 25 2 -4 36 -15 17 -38 29 -63 33 l-39 6 -5 105 c-6 102 -12
130 -30 130 -5 0 -12 -6 -17 -12z"/>
<path d="M503 938 c-4 -7 -10 -60 -13 -118 l-5 -105 -58 0 c-44 0 -56 -3 -52
-13 3 -8 5 -15 5 -18 0 -2 13 -10 30 -19 20 -10 59 -15 130 -15 56 0 110 -5
121 -10 26 -15 25 2 -4 36 -15 17 -38 29 -63 33 l-39 6 -5 105 c-6 102 -12
130 -30 130 -5 0 -12 -6 -17 -12z"/>
<path d="M1363 938 c-4 -7 -10 -60 -13 -118 l-5 -105 -58 0 c-44 0 -56 -3 -52
-13 3 -8 5 -15 5 -18 0 -2 13 -10 30 -19 20 -10 59 -15 130 -15 56 0 110 -5
121 -10 26 -15 25 2 -4 36 -15 17 -38 29 -63 33 l-39 6 -5 105 c-6 102 -12
130 -30 130 -5 0 -12 -6 -17 -12z"/>
<path d="M1546 365 c-18 -19 -22 -86 -6 -116 12 -22 52 -25 69 -5 19 22 23 78
9 106 -16 30 -50 37 -72 15z m56 -30 c15 -34 0 -80 -27 -80 -16 0 -21 8 -23
39 -2 21 -1 44 2 52 9 23 35 16 48 -11z"/>
<path d="M1670 305 c0 -75 5 -86 28 -63 15 15 16 32 2 23 -6 -4 -10 17 -10 54
0 34 -4 61 -10 61 -6 0 -10 -32 -10 -75z"/>
</g>
</svg>
