<?xml version="1.0" standalone="no"?>
<!DOCTYPE svg PUBLIC "-//W3C//DTD SVG 20010904//EN"
 "http://www.w3.org/TR/2001/REC-SVG-20010904/DTD/svg10.dtd">
<svg version="1.0" xmlns="http://www.w3.org/2000/svg"
 width="191.000000pt" height="297.000000pt" viewBox="0 0 191.000000 297.000000"
 preserveAspectRatio="xMidYMid meet">

<g transform="translate(0.000000,297.000000) scale(0.100000,-0.100000)"
fill="#000000" stroke="none">
<path d="M235 2741 c-3 -5 9 -11 27 -13 38 -4 46 -31 11 -36 -13 -2 -23 -7
-23 -10 0 -4 10 -12 23 -17 33 -15 28 -39 -10 -43 -41 -4 -44 -22 -4 -22 46 0
77 40 50 67 -8 8 -7 16 2 31 10 17 10 23 0 36 -15 17 -66 22 -76 7z"/>
<path d="M795 2182 c3 -8 5 -15 5 -18 0 -8 60 -34 79 -34 30 0 40 -28 40 -116
0 -90 15 -144 33 -126 6 6 16 62 23 124 l11 113 57 -1 c57 -1 57 -1 44 20 -23
35 -57 44 -180 48 -95 2 -116 1 -112 -10z"/>
<path d="M795 1622 c3 -8 5 -15 5 -18 0 -8 60 -34 79 -34 30 0 40 -28 40 -116
0 -90 15 -144 33 -126 6 6 16 62 23 124 l11 113 57 -1 c57 -1 57 -1 44 20 -23
35 -57 44 -180 48 -95 2 -116 1 -112 -10z"/>
<path d="M930 1075 c-6 -16 -11 -65 -11 -109 0 -110 -7 -120 -75 -113 -49 5
-53 4 -45 -12 22 -40 42 -46 170 -52 69 -3 127 -4 129 -3 2 1 -1 11 -7 22 -10
19 -47 38 -86 44 -18 3 -21 16 -31 116 -11 121 -26 155 -44 107z"/>
<path d="M1606 364 c-19 -18 -20 -36 -5 -51 8 -8 7 -16 -2 -31 -17 -27 3 -52
42 -52 40 0 46 18 7 22 -38 4 -46 31 -10 36 12 2 22 7 22 10 0 4 -10 12 -22
17 -34 15 -29 39 10 43 17 2 32 7 32 13 0 15 -57 10 -74 -7z"/>
</g>
</svg>
