<svg xmlns="http://www.w3.org/2000/svg" width="300" height="300" viewBox="0 0 300 300">
  <path d="M 171.05 166.46 L 181.94 164.92 L 188.87 161.27 L 212.12 138.74 L 217.24 131.81 L 222.34 117.95 L 223.08 97.17 L 221.77 86.77 L 218.56 78.11 L 215.34 72.91 L 190.6 46.95 L 185.4 43.4 L 180.21 41.24 L 169.81 40.45 L 69.34 40.45 L 67.81 41.73 L 69.19 43.46 L 103.99 77.52 L 109.18 78.89 L 166.35 78.92 L 173.28 81.46 L 181.13 88.5 L 184.34 93.7 L 185.94 98.9 L 185.98 109.29 L 184.33 114.49 L 180.21 120.74 L 173.28 127.7 L 168.08 130.67 L 159.42 132.18 L 81.47 132.75 L 80.22 133.54 L 100.52 153.16 L 109.18 160.06 L 117.84 164.82 L 128.24 166.61 L 171.05 166.46 Z M 81.72 258.27 L 115.23 234.02 L 115.75 178.58 L 111.14 171.65 L 79.73 141.65 L 78.52 143.94 L 78.64 256.54 L 79.73 259.4 L 81.72 258.27 Z M 232.19 258.27 L 194.33 211.5 L 164.62 176.69 L 155.95 173.64 L 124.63 173.39 L 123.5 175.12 L 136.6 190.71 L 138.63 195.77 L 187.21 256.54 L 192.33 259.1 L 230.44 259.2 L 232.19 258.27 Z" fill="#111111" fill-rule="evenodd" clip-rule="evenodd"/>
</svg>
