<svg xmlns="http://www.w3.org/2000/svg" width="300" height="300" viewBox="0 0 300 300">
  <path d="M 115.49 124.88 L 111.63 116.22 L 110.52 109.29 L 110.87 104.09 L 112.12 98.9 L 115.84 91.97 L 124.82 82.97 L 135.21 78.91 L 180.25 78.78 L 185.45 77.7 L 188.91 75.4 L 223.56 41.73 L 221.83 40.55 L 126.55 40.49 L 117.89 41.71 L 111 45.2 L 94.07 60.79 L 84.98 70.47 L 79.3 81.57 L 77.74 90.24 L 81.51 100.36 L 88.67 109.29 L 105.76 121.61 L 114.42 125.86 L 115.49 124.88 Z M 223.69 197.64 L 222.45 182.05 L 220.69 175.12 L 216.99 166.46 L 208.65 154.33 L 197.57 144.87 L 185.45 138.77 L 178.52 136.72 L 150.8 135.26 L 133.48 135.58 L 114.42 132.28 L 102.3 127.34 L 93.64 122.35 L 86.29 116.22 L 80.81 109.29 L 78.05 104.03 L 76.31 103.23 L 76.53 116.22 L 79.62 130.08 L 82.92 138.74 L 91.91 152.13 L 98.83 158.8 L 105.76 163.71 L 112.69 167 L 121.35 169.22 L 169.86 170.04 L 180.25 171.04 L 187.18 172.77 L 197.26 176.85 L 207.97 183.15 L 216.92 190.71 L 221.83 198.02 L 223.69 197.64 Z M 178.76 258.27 L 188.91 253.56 L 212.12 232.28 L 218.36 222.96 L 222.57 209.76 L 221.91 206.3 L 219.62 202.83 L 207.1 190.71 L 197.57 183.55 L 185.45 177.88 L 183.89 178.58 L 187.96 188.98 L 187.3 199.37 L 184.67 206.3 L 176.79 215.76 L 169.25 220.16 L 162.93 221.84 L 121.35 222.78 L 117.89 224.75 L 82.2 258.27 L 83.24 259.14 L 102.3 259.3 L 168.13 259.14 L 178.76 258.27 Z" fill="#111111" fill-rule="evenodd" clip-rule="evenodd"/>
</svg>
