<svg xmlns="http://www.w3.org/2000/svg" width="300" height="300" viewBox="0 0 300 300">
  <path d="M 169.67 211.5 L 186.91 173.39 L 239.57 50.39 L 244.34 41.73 L 243.67 39.81 L 236.74 39.85 L 228.08 41.53 L 219.42 45.12 L 210.75 50.15 L 202.09 56.87 L 194.73 64.25 L 187.93 79.84 L 156.88 152.6 L 149.23 173.39 L 151.86 181.84 L 162.09 202.83 L 167.45 212.39 L 169.67 211.5 Z M 146.78 258.27 L 150.71 254.8 L 162.44 228.82 L 164.44 221.89 L 149.29 194.17 L 137.3 168.19 L 93.77 45.2 L 91.23 41.93 L 87.76 40.24 L 56.58 40.59 L 55.66 43.46 L 61.92 59.06 L 86.41 130.08 L 126.91 254.8 L 131.07 258.68 L 146.78 258.27 Z" fill="#111111" fill-rule="evenodd" clip-rule="evenodd"/>
</svg>
