<svg xmlns="http://www.w3.org/2000/svg" width="300" height="300" viewBox="0 0 300 300">
  <path d="M 85.48 208.03 L 99.5 182.05 L 110.24 164.72 L 105.17 142.2 L 86.5 74.65 L 74.43 43.46 L 72.03 41.22 L 68.56 39.73 L 40.85 39.78 L 39.48 41.73 L 58.43 116.22 L 83.24 208.03 L 84.15 209.1 L 85.48 208.03 Z M 210.34 209.76 L 249.07 81.57 L 255.01 52.13 L 260.52 41.73 L 260.5 40 L 255.65 39.8 L 246.99 41.47 L 236.59 46.39 L 225.33 55.59 L 217.02 65.98 L 213.54 72.91 L 189.02 152.6 L 184.88 169.92 L 208.04 209.76 L 208.88 211 L 210.34 209.76 Z M 195.69 256.54 L 205.41 228.51 L 205.41 220.68 L 203.85 216.69 L 191.93 197.64 L 156.2 145.67 L 146.51 126.08 L 133.24 149.13 L 116.09 171.65 L 94 208.03 L 88.79 218.43 L 88.01 223.62 L 88.53 228.82 L 95.95 254.8 L 98.01 257.99 L 99.55 256.54 L 138.32 202.83 L 143.17 187.24 L 143.71 164.72 L 146.51 145.76 L 149.59 166.46 L 149.16 187.24 L 153.44 202.68 L 156.59 208.03 L 192.79 256.54 L 195.02 257.54 L 195.69 256.54 Z" fill="#111111" fill-rule="evenodd" clip-rule="evenodd"/>
</svg>
