<?xml version="1.0" standalone="no"?>
<!DOCTYPE svg PUBLIC "-//W3C//DTD SVG 20010904//EN"
 "http://www.w3.org/TR/2001/REC-SVG-20010904/DTD/svg10.dtd">
<svg version="1.0" xmlns="http://www.w3.org/2000/svg"
 width="100.000000pt" height="100.000000pt" viewBox="0 0 100.000000 100.000000"
 preserveAspectRatio="xMidYMid meet">

<g transform="translate(0.000000,100.000000) scale(0.100000,-0.100000)"
fill="#000000" stroke="none">
<path d="M383 986 c-219 -53 -383 -261 -383 -486 0 -270 230 -500 500 -500
270 0 500 230 500 500 0 274 -233 503 -508 499 -31 0 -80 -6 -109 -13z m270
-160 c82 -40 161 -128 187 -212 25 -84 25 -144 0 -228 -26 -84 -104 -172 -188
-213 -50 -24 -69 -27 -152 -27 -83 0 -102 3 -152 27 -35 17 -78 50 -112 88
-128 138 -128 340 0 478 85 92 160 123 285 117 56 -3 90 -11 132 -30z"/>
<path d="M392 812 c-141 -51 -231 -190 -220 -337 10 -117 80 -220 187 -272 81
-40 201 -40 282 0 66 32 132 99 162 165 34 73 31 198 -6 273 -32 67 -100 132
-165 162 -66 29 -172 33 -240 9z"/>
</g>
</svg>
